<svg width="32" height="32" viewBox="0 0 32 32" fill="none" xmlns="http://www.w3.org/2000/svg">
<circle cx="16" cy="16" r="16" fill="#C6DCB2" fill-opacity="0.85098"/>
<g clip-path="url(#clip0_2009_296)">
<path d="M13.297 22.5473H15.9844V23.2798H13.297V22.5473ZM17.6936 22.5473H18.4261V23.2798H17.6936V22.5473ZM16.4728 22.5473H17.2053V23.2798H16.4728V22.5473ZM11.1405 23.9943H14.0656V24.7268H11.1405V23.9943ZM15.9022 12.9517L15.2814 12.5627L15.6703 11.9419L16.2911 12.3308L15.9022 12.9517ZM11.7384 19.5978L11.1176 19.2088L14.3741 14.0103L14.995 14.3992L11.7384 19.5978ZM15.254 13.9858L14.6331 13.5969L15.0221 12.976L15.6429 13.3649L15.254 13.9858Z" fill="#E25762"/>
<path d="M28.8036 8.46514L28.4281 8.08955C28.0481 7.70962 27.6979 7.65703 27.4165 7.6147C27.1798 7.57915 27.0235 7.55566 26.8141 7.34634C26.6048 7.13691 26.5813 6.98062 26.5457 6.7439C26.5034 6.4625 26.4509 6.11226 26.0709 5.73232C25.691 5.35244 25.3408 5.29985 25.0594 5.25757C24.8227 5.22202 24.6664 5.19854 24.4571 4.98921C24.2478 4.77993 24.2243 4.62363 24.1888 4.38696C24.1465 4.10557 24.094 3.75537 23.714 3.37549L23.3386 3L21.2748 7.59658L21.1658 7.48755L19.8966 8.75669L19.484 8.34404L16.029 8.67188L6.19632 24.367L7.43636 25.6071L23.1315 15.7744L23.4594 12.3195L23.047 11.9071L24.3161 10.6379L24.2071 10.5289L28.8036 8.46514ZM7.54183 24.6767L7.12679 24.2616L8.71092 21.733L10.0705 23.0925L7.54183 24.6767ZM22.4364 15.3456L10.7075 22.6935L9.10999 21.096L16.4579 9.36709L19.2099 9.10591L20.2121 10.1082L17.6127 11.0872L17.6102 11.0876L17.8686 11.7733L20.7809 10.677L21.1268 11.0229L20.031 13.9333L20.0305 13.9352L20.7137 14.1926L20.7171 14.194V14.1906L21.6953 11.5914L22.6976 12.5938L22.4364 15.3456ZM22.5289 11.3891L20.4146 9.27471L21.1658 8.52349L23.2802 10.6379L22.5289 11.3891ZM23.234 9.55581L25.4877 8.13154L25.4896 8.13013L25.0999 7.51279L25.0985 7.51084L22.9087 8.89487L24.2912 6.70703L24.2927 6.70508L23.6769 6.31587V6.30855L22.2477 8.56943L21.829 8.15073L23.4658 4.50493C23.5078 4.78472 23.5634 5.13145 23.9391 5.50723C24.319 5.88711 24.6692 5.9397 24.9506 5.98198C25.1873 6.01753 25.3436 6.04102 25.5529 6.25034C25.7623 6.45972 25.7858 6.61602 25.8214 6.85273C25.8637 7.13418 25.9162 7.48438 26.2962 7.86431C26.6722 8.24023 27.019 8.29565 27.2989 8.33774L23.6529 9.97466L23.234 9.55581ZM21.343 25.5138H8.94808C8.78152 25.5138 8.61712 25.4837 8.4596 25.4245L8.20169 26.1101C8.44024 26.2002 8.69313 26.2463 8.94813 26.2463H21.343C21.9813 26.2463 22.5202 26.6795 22.6813 27.2675H8.55272C7.78768 27.2675 7.16527 26.6451 7.16527 25.88V25.8331H6.43275V25.88C6.43275 27.049 7.38377 28 8.55272 28L23.4629 28V27.6337C23.4629 26.4647 22.5118 25.5138 21.343 25.5138Z" fill="#395222" fill-opacity="0.85098"/>
<path d="M9.53387 26.3826H10.2664V27.1151H9.53387V26.3826ZM10.7547 26.3826H11.4872V27.1151H10.7547V26.3826ZM11.9756 26.3826H15.6719V27.1151H11.9756V26.3826Z" fill="#E25762"/>
</g>
<defs>
<clipPath id="clip0_2009_296">
<rect width="25" height="25" fill="white" transform="translate(5 3)"/>
</clipPath>
</defs>
</svg>
